<svg xmlns="http://www.w3.org/2000/svg" width="500" height="500" class="icon" version="1.1" viewBox="0 0 1024 1024"><path fill="#333" d="M912 192H328c-4.4 0-8 3.6-8 8v56c0 4.4 3.6 8 8 8h584c4.4 0 8-3.6 8-8v-56c0-4.4-3.6-8-8-8zM912 476H328c-4.4 0-8 3.6-8 8v56c0 4.4 3.6 8 8 8h584c4.4 0 8-3.6 8-8v-56c0-4.4-3.6-8-8-8zM912 760H328c-4.4 0-8 3.6-8 8v56c0 4.4 3.6 8 8 8h584c4.4 0 8-3.6 8-8v-56c0-4.4-3.6-8-8-8zM160 228m-56 0a56 56 0 1 0 112 0 56 56 0 1 0-112 0ZM160 512m-56 0a56 56 0 1 0 112 0 56 56 0 1 0-112 0ZM160 796m-56 0a56 56 0 1 0 112 0 56 56 0 1 0-112 0Z"/></svg>